<?xml version="1.0" encoding="utf-8"?>
<!-- Generator: Adobe Illustrator 27.6.1, SVG Export Plug-In . SVG Version: 6.00 Build 0)  -->
<svg version="1.1" id="Layer_1" xmlns="http://www.w3.org/2000/svg" xmlns:xlink="http://www.w3.org/1999/xlink" x="0px" y="0px" viewBox="0 0 1068 600" style="enable-background:new 0 0 1068 600;" xml:space="preserve">
<style type="text/css">
	.st0{fill:#252529;}
	.st1{fill:#1E1E20;}
	.st2{fill:url(#SVGID_1_);}
	.st3{fill:url(#SVGID_00000005986401639703150760000008999860308716515977_);}
	.st4{fill:url(#SVGID_00000178926890117709574940000004152026614962485389_);}
	.st5{fill:url(#SVGID_00000158727639061200523580000006480386319735441844_);}
	.st6{fill:url(#SVGID_00000112621746294483737590000012386366949208787896_);}
	.st7{fill:url(#SVGID_00000135689414240972112440000004863108766180286593_);}
	.st8{fill:url(#SVGID_00000177453005314294394890000007112692084313333645_);}
	.st9{fill:url(#SVGID_00000150800606760621533750000014210040722052424345_);}
	.st10{fill:url(#SVGID_00000045592451496824810570000017236959088649884560_);}
	.st11{fill:#979FAD;}
	.st12{fill:url(#SVGID_00000161594862454579346540000008320592692164066444_);}
	.st13{fill:#18181A;}
	.st14{fill:#414147;}
	.st15{fill:#42B883;}
</style>
<g>
	<rect x="0.4" y="0" class="st0" width="1068" height="600"/>
	<path class="st1" d="M275.5,324.3H90.4c-16.6,0-30-13.4-30-30V90c0-16.6,13.4-30,30-30h185.1c16.6,0,30,13.4,30,30v204.3
		C305.5,310.9,292.1,324.3,275.5,324.3z"/>
	<path class="st1" d="M978.4,540H385.5c-16.6,0-30-13.4-30-30V90c0-16.6,13.4-30,30-30h592.9c16.6,0,30,13.4,30,30v420
		C1008.4,526.6,995,540,978.4,540z"/>
	
		<linearGradient id="SVGID_1_" gradientUnits="userSpaceOnUse" x1="401.7415" y1="477.0494" x2="441.7828" y2="466.9507" gradientTransform="matrix(1 0 0 -1 0 602)">
		<stop offset="0" style="stop-color:#42B883"/>
		<stop offset="1.000000e-04" style="stop-color:#42B883"/>
		<stop offset="1" style="stop-color:#0EBBD2"/>
	</linearGradient>
	<path class="st2" d="M413,142.5V110h25v32.5H413z M410.5,145h20v5h-25v-32.5h5V145z"/>
	<g>
		
			<linearGradient id="SVGID_00000072988794583913059930000001540202381420894886_" gradientUnits="userSpaceOnUse" x1="94.4555" y1="201.4619" x2="268.6632" y2="201.4619">
			<stop offset="0" style="stop-color:#42B883"/>
			<stop offset="1.000000e-04" style="stop-color:#42B883"/>
			<stop offset="1" style="stop-color:#0EBBD2"/>
		</linearGradient>
		<path style="fill:url(#SVGID_00000072988794583913059930000001540202381420894886_);" d="M108.5,216c-2.4,0-4.4-0.6-6.1-1.7
			c-1.7-1.2-3-2.8-3.9-5c-0.9-2.2-1.4-4.8-1.4-7.9c0-3.1,0.5-5.7,1.4-7.8s2.2-3.8,3.9-4.9c1.7-1.1,3.7-1.7,6.1-1.7
			c2.4,0,4.4,0.6,6.1,1.7c1.7,1.1,3,2.8,3.9,4.9c0.9,2.2,1.4,4.8,1.4,7.8c0,3.1-0.5,5.7-1.4,7.9c-0.9,2.2-2.2,3.9-3.9,5
			C112.8,215.4,110.8,216,108.5,216z M108.5,211.1c1.6,0,2.9-0.8,3.9-2.4c1-1.6,1.4-4,1.4-7.3c0-2.1-0.2-3.9-0.7-5.3
			c-0.4-1.4-1-2.5-1.8-3.2c-0.8-0.7-1.7-1.1-2.8-1.1c-1.6,0-2.9,0.8-3.8,2.4c-1,1.6-1.4,4-1.5,7.2c0,2.2,0.2,4,0.7,5.4
			c0.4,1.4,1,2.5,1.8,3.2C106.4,210.7,107.4,211.1,108.5,211.1z"/>
		
			<linearGradient id="SVGID_00000118374984788286905350000012378372875203796923_" gradientUnits="userSpaceOnUse" x1="94.4555" y1="201.4619" x2="268.6632" y2="201.4619">
			<stop offset="0" style="stop-color:#42B883"/>
			<stop offset="1.000000e-04" style="stop-color:#42B883"/>
			<stop offset="1" style="stop-color:#0EBBD2"/>
		</linearGradient>
		<path style="fill:url(#SVGID_00000118374984788286905350000012378372875203796923_);" d="M135,216c-2.4,0-4.4-0.6-6.1-1.7
			c-1.7-1.2-3-2.8-3.9-5c-0.9-2.2-1.4-4.8-1.4-7.9c0-3.1,0.5-5.7,1.4-7.8c0.9-2.2,2.2-3.8,3.9-4.9c1.7-1.1,3.7-1.7,6.1-1.7
			s4.4,0.6,6.1,1.7c1.7,1.1,3,2.8,3.9,4.9c0.9,2.2,1.4,4.8,1.4,7.8c0,3.1-0.5,5.7-1.4,7.9c-0.9,2.2-2.2,3.9-3.9,5
			C139.4,215.4,137.4,216,135,216z M135,211.1c1.6,0,2.9-0.8,3.9-2.4c1-1.6,1.4-4,1.4-7.3c0-2.1-0.2-3.9-0.7-5.3
			c-0.4-1.4-1-2.5-1.8-3.2c-0.8-0.7-1.7-1.1-2.8-1.1c-1.6,0-2.9,0.8-3.8,2.4c-1,1.6-1.4,4-1.5,7.2c0,2.2,0.2,4,0.7,5.4
			c0.4,1.4,1,2.5,1.8,3.2C133,210.7,134,211.1,135,211.1z"/>
		
			<linearGradient id="SVGID_00000025422050278055725800000013374910426097024651_" gradientUnits="userSpaceOnUse" x1="94.4555" y1="201.963" x2="268.6632" y2="201.963">
			<stop offset="0" style="stop-color:#42B883"/>
			<stop offset="1.000000e-04" style="stop-color:#42B883"/>
			<stop offset="1" style="stop-color:#0EBBD2"/>
		</linearGradient>
		<path style="fill:url(#SVGID_00000025422050278055725800000013374910426097024651_);" d="M154.1,198.3c-0.9,0-1.7-0.3-2.3-1
			c-0.6-0.6-1-1.4-1-2.3c0-0.9,0.3-1.7,1-2.3c0.6-0.6,1.4-1,2.3-1c0.9,0,1.6,0.3,2.3,1c0.7,0.6,1,1.4,1,2.3c0,0.6-0.2,1.2-0.5,1.7
			c-0.3,0.5-0.7,0.9-1.2,1.2C155.2,198.2,154.7,198.3,154.1,198.3z M154.1,212.1c-0.9,0-1.7-0.3-2.3-1c-0.6-0.6-1-1.4-1-2.3
			c0-0.9,0.3-1.7,1-2.3c0.6-0.6,1.4-1,2.3-1c0.9,0,1.6,0.3,2.3,1c0.7,0.6,1,1.4,1,2.3c0,0.6-0.2,1.2-0.5,1.7
			c-0.3,0.5-0.7,0.9-1.2,1.2C155.2,212,154.7,212.1,154.1,212.1z"/>
		
			<linearGradient id="SVGID_00000107573013111545210520000017908629963361540227_" gradientUnits="userSpaceOnUse" x1="94.4555" y1="201.1532" x2="268.6632" y2="201.1532">
			<stop offset="0" style="stop-color:#42B883"/>
			<stop offset="1.000000e-04" style="stop-color:#42B883"/>
			<stop offset="1" style="stop-color:#0EBBD2"/>
		</linearGradient>
		<path style="fill:url(#SVGID_00000107573013111545210520000017908629963361540227_);" d="M162.1,215.4v-4.3l10-9.3
			c0.9-0.8,1.6-1.6,2.1-2.2c0.6-0.7,1-1.3,1.3-1.9c0.3-0.6,0.5-1.3,0.5-2.1c0-0.8-0.2-1.5-0.6-2.1c-0.4-0.6-0.9-1.1-1.5-1.4
			c-0.6-0.3-1.4-0.5-2.2-0.5c-0.9,0-1.6,0.2-2.3,0.5c-0.6,0.3-1.1,0.8-1.5,1.5c-0.3,0.6-0.5,1.4-0.5,2.3h-5.6c0-1.8,0.4-3.4,1.2-4.8
			c0.8-1.4,2-2.4,3.5-3.1c1.5-0.7,3.2-1.1,5.2-1.1c2,0,3.8,0.4,5.3,1.1c1.5,0.7,2.7,1.7,3.5,2.9c0.8,1.3,1.2,2.7,1.2,4.3
			c0,1.1-0.2,2.1-0.6,3.1c-0.4,1-1.2,2.2-2.2,3.4c-1.1,1.3-2.6,2.8-4.5,4.5l-4.1,4v0.2h11.8v4.9H162.1z"/>
		
			<linearGradient id="SVGID_00000027571741981350471050000010731901255975679669_" gradientUnits="userSpaceOnUse" x1="94.4555" y1="201.3454" x2="268.6632" y2="201.3454">
			<stop offset="0" style="stop-color:#42B883"/>
			<stop offset="1.000000e-04" style="stop-color:#42B883"/>
			<stop offset="1" style="stop-color:#0EBBD2"/>
		</linearGradient>
		<path style="fill:url(#SVGID_00000027571741981350471050000010731901255975679669_);" d="M196.9,215.8c-2,0-3.9-0.4-5.5-1.1
			c-1.6-0.7-2.9-1.7-3.8-2.9c-0.9-1.2-1.4-2.7-1.4-4.3h6c0,0.7,0.3,1.3,0.7,1.8c0.4,0.5,1,0.9,1.7,1.2c0.7,0.3,1.5,0.4,2.3,0.4
			c0.9,0,1.7-0.2,2.4-0.5s1.2-0.8,1.6-1.3c0.4-0.6,0.6-1.2,0.6-2c0-0.8-0.2-1.4-0.6-2c-0.4-0.6-1-1-1.8-1.4
			c-0.8-0.3-1.7-0.5-2.8-0.5h-2.6v-4.4h2.6c0.9,0,1.7-0.2,2.4-0.5c0.7-0.3,1.2-0.7,1.6-1.3c0.4-0.6,0.6-1.2,0.6-1.9
			c0-0.7-0.2-1.3-0.5-1.9c-0.3-0.5-0.8-1-1.4-1.3c-0.6-0.3-1.3-0.5-2.1-0.5c-0.8,0-1.5,0.1-2.2,0.4c-0.7,0.3-1.2,0.7-1.6,1.2
			c-0.4,0.5-0.6,1.2-0.6,1.9h-5.7c0-1.6,0.5-3,1.4-4.3c0.9-1.2,2.1-2.2,3.6-2.9c1.5-0.7,3.2-1.1,5.2-1.1c1.9,0,3.6,0.4,5.1,1.1
			c1.5,0.7,2.6,1.7,3.4,2.8c0.8,1.2,1.2,2.5,1.2,4c0,1.6-0.5,2.9-1.5,3.9s-2.3,1.7-3.8,2v0.2c2.1,0.3,3.6,1,4.7,2.1
			c1.1,1.2,1.6,2.6,1.6,4.4c0,1.6-0.5,3-1.4,4.3c-0.9,1.2-2.2,2.2-3.8,2.9C200.8,215.4,199,215.8,196.9,215.8z"/>
		
			<linearGradient id="SVGID_00000113354306080179048430000006097078704004829071_" gradientUnits="userSpaceOnUse" x1="94.4555" y1="201.963" x2="268.6632" y2="201.963">
			<stop offset="0" style="stop-color:#42B883"/>
			<stop offset="1.000000e-04" style="stop-color:#42B883"/>
			<stop offset="1" style="stop-color:#0EBBD2"/>
		</linearGradient>
		<path style="fill:url(#SVGID_00000113354306080179048430000006097078704004829071_);" d="M215.4,198.3c-0.9,0-1.7-0.3-2.3-1
			c-0.6-0.6-1-1.4-1-2.3c0-0.9,0.3-1.7,1-2.3c0.6-0.6,1.4-1,2.3-1c0.9,0,1.6,0.3,2.3,1c0.7,0.6,1,1.4,1,2.3c0,0.6-0.2,1.2-0.5,1.7
			c-0.3,0.5-0.7,0.9-1.2,1.2C216.6,198.2,216,198.3,215.4,198.3z M215.4,212.1c-0.9,0-1.7-0.3-2.3-1c-0.6-0.6-1-1.4-1-2.3
			c0-0.9,0.3-1.7,1-2.3c0.6-0.6,1.4-1,2.3-1c0.9,0,1.6,0.3,2.3,1c0.7,0.6,1,1.4,1,2.3c0,0.6-0.2,1.2-0.5,1.7
			c-0.3,0.5-0.7,0.9-1.2,1.2C216.6,212,216,212.1,215.4,212.1z"/>
		
			<linearGradient id="SVGID_00000140730061363794363540000001987258723693883302_" gradientUnits="userSpaceOnUse" x1="94.4555" y1="201.1532" x2="268.6632" y2="201.1532">
			<stop offset="0" style="stop-color:#42B883"/>
			<stop offset="1.000000e-04" style="stop-color:#42B883"/>
			<stop offset="1" style="stop-color:#0EBBD2"/>
		</linearGradient>
		<path style="fill:url(#SVGID_00000140730061363794363540000001987258723693883302_);" d="M223.5,215.4v-4.3l10-9.3
			c0.9-0.8,1.6-1.6,2.1-2.2c0.6-0.7,1-1.3,1.3-1.9c0.3-0.6,0.5-1.3,0.5-2.1c0-0.8-0.2-1.5-0.6-2.1c-0.4-0.6-0.9-1.1-1.5-1.4
			c-0.6-0.3-1.4-0.5-2.2-0.5c-0.9,0-1.6,0.2-2.3,0.5c-0.6,0.3-1.1,0.8-1.5,1.5c-0.3,0.6-0.5,1.4-0.5,2.3h-5.6c0-1.8,0.4-3.4,1.2-4.8
			c0.8-1.4,2-2.4,3.5-3.1c1.5-0.7,3.2-1.1,5.2-1.1c2,0,3.8,0.4,5.3,1.1c1.5,0.7,2.7,1.7,3.5,2.9c0.8,1.3,1.2,2.7,1.2,4.3
			c0,1.1-0.2,2.1-0.6,3.1c-0.4,1-1.2,2.2-2.2,3.4c-1.1,1.3-2.6,2.8-4.5,4.5l-4.1,4v0.2h11.8v4.9H223.5z"/>
		
			<linearGradient id="SVGID_00000163074554893013217730000000380628995474143372_" gradientUnits="userSpaceOnUse" x1="94.4555" y1="201.1532" x2="268.6632" y2="201.1532">
			<stop offset="0" style="stop-color:#42B883"/>
			<stop offset="1.000000e-04" style="stop-color:#42B883"/>
			<stop offset="1" style="stop-color:#0EBBD2"/>
		</linearGradient>
		<path style="fill:url(#SVGID_00000163074554893013217730000000380628995474143372_);" d="M247.8,215.4v-4.3l10-9.3
			c0.9-0.8,1.6-1.6,2.1-2.2c0.6-0.7,1-1.3,1.3-1.9c0.3-0.6,0.5-1.3,0.5-2.1c0-0.8-0.2-1.5-0.6-2.1c-0.4-0.6-0.9-1.1-1.5-1.4
			c-0.6-0.3-1.4-0.5-2.2-0.5c-0.9,0-1.6,0.2-2.3,0.5c-0.6,0.3-1.1,0.8-1.5,1.5c-0.3,0.6-0.5,1.4-0.5,2.3h-5.6c0-1.8,0.4-3.4,1.2-4.8
			c0.8-1.4,2-2.4,3.5-3.1c1.5-0.7,3.2-1.1,5.2-1.1c2,0,3.8,0.4,5.3,1.1c1.5,0.7,2.7,1.7,3.5,2.9c0.8,1.3,1.2,2.7,1.2,4.3
			c0,1.1-0.2,2.1-0.6,3.1c-0.4,1-1.2,2.2-2.2,3.4c-1.1,1.3-2.6,2.8-4.5,4.5l-4.1,4v0.2h11.8v4.9H247.8z"/>
	</g>
	<path class="st11" d="M948.4,140h-473c-5.5,0-10-4.5-10-10v0c0-5.5,4.5-10,10-10h473c5.5,0,10,4.5,10,10v0
		C958.4,135.5,954,140,948.4,140z"/>
	<g>
		
			<linearGradient id="SVGID_00000170965210512726002490000003736338137179268767_" gradientUnits="userSpaceOnUse" x1="94.3291" y1="477.81" x2="136.287" y2="466.6465" gradientTransform="matrix(1 0 0 -1 0 602)">
			<stop offset="0" style="stop-color:#42B883"/>
			<stop offset="1.000000e-04" style="stop-color:#42B883"/>
			<stop offset="1" style="stop-color:#0EBBD2"/>
		</linearGradient>
		<path style="fill:url(#SVGID_00000170965210512726002490000003736338137179268767_);" d="M111.4,113.8c-0.5,0-1-0.2-1.4-0.5
			c-0.4-0.4-0.5-0.8-0.5-1.4c0-0.5,0.2-1,0.5-1.4c0.4-0.4,0.8-0.5,1.4-0.5h7.6c0.5,0,1,0.2,1.4,0.5c0.4,0.4,0.5,0.8,0.5,1.4
			c0,0.5-0.2,1-0.5,1.4c-0.4,0.4-0.8,0.5-1.4,0.5H111.4z M115.2,134.8c0.5,0,1-0.2,1.4-0.5c0.4-0.4,0.5-0.8,0.5-1.4v-7.6
			c0-0.5-0.2-1-0.5-1.4c-0.4-0.4-0.8-0.5-1.4-0.5c-0.5,0-1,0.2-1.4,0.5c-0.4,0.4-0.5,0.8-0.5,1.4v7.6c0,0.5,0.2,1,0.5,1.4
			C114.3,134.6,114.7,134.8,115.2,134.8z M115.2,150c-2.3,0-4.6-0.5-6.6-1.4c-2.1-0.9-3.9-2.1-5.5-3.7c-1.6-1.6-2.8-3.4-3.7-5.5
			c-0.9-2.1-1.4-4.3-1.4-6.6c0-2.3,0.5-4.6,1.4-6.6c0.9-2.1,2.1-3.9,3.7-5.5c1.6-1.6,3.4-2.8,5.5-3.7c2.1-0.9,4.3-1.4,6.6-1.4
			c2,0,3.9,0.3,5.7,1c1.8,0.6,3.5,1.6,5.1,2.8l1.4-1.4c0.3-0.3,0.8-0.5,1.3-0.5c0.5,0,1,0.2,1.3,0.6c0.3,0.3,0.5,0.8,0.5,1.3
			c0,0.5-0.2,1-0.5,1.3l-1.3,1.3c1.2,1.6,2.1,3.3,2.8,5.1c0.6,1.8,1,3.7,1,5.7c0,2.3-0.5,4.6-1.4,6.6c-0.9,2.1-2.1,3.9-3.7,5.5
			c-1.6,1.6-3.4,2.8-5.5,3.7C119.8,149.5,117.6,150,115.2,150z"/>
		<path class="st11" d="M257.8,140h-84.4c-5.5,0-10-4.5-10-10v0c0-5.5,4.5-10,10-10h84.4c5.5,0,10,4.5,10,10v0
			C267.8,135.5,263.4,140,257.8,140z"/>
	</g>
	<path class="st13" d="M948.4,490H415.5c-5.5,0-10-4.5-10-10V199.2c0-5.5,4.5-10,10-10h532.9c5.5,0,10,4.5,10,10V480
		C958.4,485.5,954,490,948.4,490z"/>
	<circle class="st14" cx="455.5" cy="245.2" r="17"/>
	<path class="st14" d="M912.8,254.2h-407c-5,0-9-4-9-9v0c0-5,4-9,9-9h407c5,0,9,4,9,9v0C921.8,250.2,917.8,254.2,912.8,254.2z"/>
	<path class="st15" d="M752.8,316.3h-247c-5,0-9-4-9-9l0,0c0-5,4-9,9-9h247c5,0,9,4,9,9l0,0C761.8,312.3,757.8,316.3,752.8,316.3z"/>
	<circle class="st14" cx="455.5" cy="369.5" r="17"/>
	<path class="st14" d="M844.9,378.5H505.8c-5,0-9-4-9-9v0c0-5,4-9,9-9h339.1c5,0,9,4,9,9v0C853.9,374.4,849.9,378.5,844.9,378.5z"/>
	<circle class="st14" cx="455.5" cy="431.6" r="17"/>
	<path class="st14" d="M616.1,440.6H505.8c-5,0-9-4-9-9l0,0c0-5,4-9,9-9h110.3c5,0,9,4,9,9l0,0C625.1,436.6,621.1,440.6,616.1,440.6
		z"/>
	<path class="st15" d="M452.9,310.6l-3.9-3.9c-0.3-0.3-0.8-0.5-1.3-0.5c-0.5,0-0.9,0.2-1.3,0.5c-0.3,0.3-0.5,0.8-0.5,1.3
		c0,0.5,0.2,0.9,0.5,1.3l5.1,5.1c0.4,0.4,0.8,0.5,1.3,0.5s0.9-0.2,1.3-0.5l10.2-10.2c0.3-0.3,0.5-0.8,0.5-1.3c0-0.5-0.2-0.9-0.5-1.3
		c-0.3-0.3-0.8-0.5-1.3-0.5c-0.5,0-0.9,0.2-1.3,0.5L452.9,310.6z M455.5,325.3c-2.5,0-4.8-0.5-7-1.4c-2.2-0.9-4.1-2.2-5.7-3.8
		c-1.6-1.6-2.9-3.5-3.8-5.7c-0.9-2.2-1.4-4.5-1.4-7c0-2.5,0.5-4.8,1.4-7c0.9-2.2,2.2-4.1,3.8-5.7c1.6-1.6,3.5-2.9,5.7-3.8
		s4.5-1.4,7-1.4c2.5,0,4.8,0.5,7,1.4s4.1,2.2,5.7,3.8c1.6,1.6,2.9,3.5,3.8,5.7c0.9,2.2,1.4,4.5,1.4,7c0,2.5-0.5,4.8-1.4,7
		c-0.9,2.2-2.2,4.1-3.8,5.7c-1.6,1.6-3.5,2.9-5.7,3.8C460.3,324.9,457.9,325.3,455.5,325.3z"/>
	<path class="st14" d="M182.4,250.7h-77.3c-4.4,0-8-3.6-8-8v0c0-4.4,3.6-8,8-8h77.3c4.4,0,8,3.6,8,8v0
		C190.4,247.1,186.8,250.7,182.4,250.7z"/>
</g>
</svg>
