<svg xmlns="http://www.w3.org/2000/svg" xml:space="preserve" id="Layer_1" x="0" y="0" version="1.1" viewBox="0 0 1068 600"><style>.st1{fill:#1e1e20}.st11{fill:#979fad}.st14{fill:#414147}.st15{fill:#42b883}</style><path d="M.4 0h1068v600H.4z" style="fill:#252529"/><path d="M275.5 324.3H90.4c-16.6 0-30-13.4-30-30V90c0-16.6 13.4-30 30-30h185.1c16.6 0 30 13.4 30 30v204.3c0 16.6-13.4 30-30 30M978.4 540H385.5c-16.6 0-30-13.4-30-30V90c0-16.6 13.4-30 30-30h592.9c16.6 0 30 13.4 30 30v420c0 16.6-13.4 30-30 30" class="st1"/><linearGradient id="SVGID_1_" x1="401.741" x2="441.783" y1="477.049" y2="466.951" gradientTransform="matrix(1 0 0 -1 0 602)" gradientUnits="userSpaceOnUse"><stop offset="0" style="stop-color:#42b883"/><stop offset="0" style="stop-color:#42b883"/><stop offset="1" style="stop-color:#0ebbd2"/></linearGradient><path d="M413 142.5V110h25v32.5zm-2.5 2.5h20v5h-25v-32.5h5z" style="fill:url(#SVGID_1_)"/><linearGradient id="SVGID_00000072988794583913059930000001540202381420894886_" x1="94.456" x2="268.663" y1="201.462" y2="201.462" gradientUnits="userSpaceOnUse"><stop offset="0" style="stop-color:#42b883"/><stop offset="0" style="stop-color:#42b883"/><stop offset="1" style="stop-color:#0ebbd2"/></linearGradient><path d="M108.5 216c-2.4 0-4.4-.6-6.1-1.7-1.7-1.2-3-2.8-3.9-5s-1.4-4.8-1.4-7.9.5-5.7 1.4-7.8 2.2-3.8 3.9-4.9 3.7-1.7 6.1-1.7 4.4.6 6.1 1.7 3 2.8 3.9 4.9c.9 2.2 1.4 4.8 1.4 7.8 0 3.1-.5 5.7-1.4 7.9s-2.2 3.9-3.9 5c-1.8 1.1-3.8 1.7-6.1 1.7m0-4.9q2.4 0 3.9-2.4c1-1.6 1.4-4 1.4-7.3 0-2.1-.2-3.9-.7-5.3-.4-1.4-1-2.5-1.8-3.2s-1.7-1.1-2.8-1.1c-1.6 0-2.9.8-3.8 2.4-1 1.6-1.4 4-1.5 7.2 0 2.2.2 4 .7 5.4.4 1.4 1 2.5 1.8 3.2.7.7 1.7 1.1 2.8 1.1" style="fill:url(#SVGID_00000072988794583913059930000001540202381420894886_)"/><linearGradient id="SVGID_00000118374984788286905350000012378372875203796923_" x1="94.456" x2="268.663" y1="201.462" y2="201.462" gradientUnits="userSpaceOnUse"><stop offset="0" style="stop-color:#42b883"/><stop offset="0" style="stop-color:#42b883"/><stop offset="1" style="stop-color:#0ebbd2"/></linearGradient><path d="M135 216c-2.4 0-4.4-.6-6.1-1.7-1.7-1.2-3-2.8-3.9-5s-1.4-4.8-1.4-7.9.5-5.7 1.4-7.8c.9-2.2 2.2-3.8 3.9-4.9s3.7-1.7 6.1-1.7 4.4.6 6.1 1.7 3 2.8 3.9 4.9c.9 2.2 1.4 4.8 1.4 7.8 0 3.1-.5 5.7-1.4 7.9s-2.2 3.9-3.9 5-3.7 1.7-6.1 1.7m0-4.9q2.4 0 3.9-2.4c1-1.6 1.4-4 1.4-7.3 0-2.1-.2-3.9-.7-5.3-.4-1.4-1-2.5-1.8-3.2s-1.7-1.1-2.8-1.1c-1.6 0-2.9.8-3.8 2.4-1 1.6-1.4 4-1.5 7.2 0 2.2.2 4 .7 5.4.4 1.4 1 2.5 1.8 3.2s1.8 1.1 2.8 1.1" style="fill:url(#SVGID_00000118374984788286905350000012378372875203796923_)"/><linearGradient id="SVGID_00000025422050278055725800000013374910426097024651_" x1="94.456" x2="268.663" y1="201.963" y2="201.963" gradientUnits="userSpaceOnUse"><stop offset="0" style="stop-color:#42b883"/><stop offset="0" style="stop-color:#42b883"/><stop offset="1" style="stop-color:#0ebbd2"/></linearGradient><path d="M154.1 198.3c-.9 0-1.7-.3-2.3-1-.6-.6-1-1.4-1-2.3s.3-1.7 1-2.3c.6-.6 1.4-1 2.3-1s1.6.3 2.3 1c.7.6 1 1.4 1 2.3 0 .6-.2 1.2-.5 1.7q-.45.75-1.2 1.2c-.5.3-1 .4-1.6.4m0 13.8c-.9 0-1.7-.3-2.3-1-.6-.6-1-1.4-1-2.3s.3-1.7 1-2.3c.6-.6 1.4-1 2.3-1s1.6.3 2.3 1c.7.6 1 1.4 1 2.3 0 .6-.2 1.2-.5 1.7q-.45.75-1.2 1.2c-.5.3-1 .4-1.6.4" style="fill:url(#SVGID_00000025422050278055725800000013374910426097024651_)"/><linearGradient id="SVGID_00000107573013111545210520000017908629963361540227_" x1="94.456" x2="268.663" y1="201.153" y2="201.153" gradientUnits="userSpaceOnUse"><stop offset="0" style="stop-color:#42b883"/><stop offset="0" style="stop-color:#42b883"/><stop offset="1" style="stop-color:#0ebbd2"/></linearGradient><path d="M162.1 215.4v-4.3l10-9.3c.9-.8 1.6-1.6 2.1-2.2.6-.7 1-1.3 1.3-1.9s.5-1.3.5-2.1q0-1.2-.6-2.1c-.4-.6-.9-1.1-1.5-1.4s-1.4-.5-2.2-.5c-.9 0-1.6.2-2.3.5q-.9.45-1.5 1.5c-.3.6-.5 1.4-.5 2.3h-5.6q0-2.7 1.2-4.8c.8-1.4 2-2.4 3.5-3.1s3.2-1.1 5.2-1.1 3.8.4 5.3 1.1 2.7 1.7 3.5 2.9c.8 1.3 1.2 2.7 1.2 4.3 0 1.1-.2 2.1-.6 3.1s-1.2 2.2-2.2 3.4q-1.65 1.95-4.5 4.5l-4.1 4v.2h11.8v4.9h-20z" style="fill:url(#SVGID_00000107573013111545210520000017908629963361540227_)"/><linearGradient id="SVGID_00000027571741981350471050000010731901255975679669_" x1="94.456" x2="268.663" y1="201.345" y2="201.345" gradientUnits="userSpaceOnUse"><stop offset="0" style="stop-color:#42b883"/><stop offset="0" style="stop-color:#42b883"/><stop offset="1" style="stop-color:#0ebbd2"/></linearGradient><path d="M196.9 215.8c-2 0-3.9-.4-5.5-1.1s-2.9-1.7-3.8-2.9-1.4-2.7-1.4-4.3h6c0 .7.3 1.3.7 1.8s1 .9 1.7 1.2 1.5.4 2.3.4c.9 0 1.7-.2 2.4-.5s1.2-.8 1.6-1.3c.4-.6.6-1.2.6-2s-.2-1.4-.6-2-1-1-1.8-1.4c-.8-.3-1.7-.5-2.8-.5h-2.6v-4.4h2.6c.9 0 1.7-.2 2.4-.5s1.2-.7 1.6-1.3.6-1.2.6-1.9-.2-1.3-.5-1.9c-.3-.5-.8-1-1.4-1.3s-1.3-.5-2.1-.5-1.5.1-2.2.4-1.2.7-1.6 1.2-.6 1.2-.6 1.9h-5.7c0-1.6.5-3 1.4-4.3.9-1.2 2.1-2.2 3.6-2.9s3.2-1.1 5.2-1.1c1.9 0 3.6.4 5.1 1.1s2.6 1.7 3.4 2.8c.8 1.2 1.2 2.5 1.2 4q0 2.4-1.5 3.9c-1.5 1.5-2.3 1.7-3.8 2v.2c2.1.3 3.6 1 4.7 2.1 1.1 1.2 1.6 2.6 1.6 4.4 0 1.6-.5 3-1.4 4.3-.9 1.2-2.2 2.2-3.8 2.9-1.7 1.1-3.5 1.5-5.6 1.5" style="fill:url(#SVGID_00000027571741981350471050000010731901255975679669_)"/><linearGradient id="SVGID_00000113354306080179048430000006097078704004829071_" x1="94.456" x2="268.663" y1="201.963" y2="201.963" gradientUnits="userSpaceOnUse"><stop offset="0" style="stop-color:#42b883"/><stop offset="0" style="stop-color:#42b883"/><stop offset="1" style="stop-color:#0ebbd2"/></linearGradient><path d="M215.4 198.3c-.9 0-1.7-.3-2.3-1-.6-.6-1-1.4-1-2.3s.3-1.7 1-2.3c.6-.6 1.4-1 2.3-1s1.6.3 2.3 1c.7.6 1 1.4 1 2.3 0 .6-.2 1.2-.5 1.7q-.45.75-1.2 1.2c-.4.3-1 .4-1.6.4m0 13.8c-.9 0-1.7-.3-2.3-1-.6-.6-1-1.4-1-2.3s.3-1.7 1-2.3c.6-.6 1.4-1 2.3-1s1.6.3 2.3 1c.7.6 1 1.4 1 2.3 0 .6-.2 1.2-.5 1.7q-.45.75-1.2 1.2c-.4.3-1 .4-1.6.4" style="fill:url(#SVGID_00000113354306080179048430000006097078704004829071_)"/><linearGradient id="SVGID_00000140730061363794363540000001987258723693883302_" x1="94.456" x2="268.663" y1="201.153" y2="201.153" gradientUnits="userSpaceOnUse"><stop offset="0" style="stop-color:#42b883"/><stop offset="0" style="stop-color:#42b883"/><stop offset="1" style="stop-color:#0ebbd2"/></linearGradient><path d="M223.5 215.4v-4.3l10-9.3c.9-.8 1.6-1.6 2.1-2.2.6-.7 1-1.3 1.3-1.9s.5-1.3.5-2.1q0-1.2-.6-2.1c-.4-.6-.9-1.1-1.5-1.4s-1.4-.5-2.2-.5c-.9 0-1.6.2-2.3.5q-.9.45-1.5 1.5c-.3.6-.5 1.4-.5 2.3h-5.6q0-2.7 1.2-4.8c.8-1.4 2-2.4 3.5-3.1s3.2-1.1 5.2-1.1 3.8.4 5.3 1.1 2.7 1.7 3.5 2.9c.8 1.3 1.2 2.7 1.2 4.3 0 1.1-.2 2.1-.6 3.1s-1.2 2.2-2.2 3.4q-1.65 1.95-4.5 4.5l-4.1 4v.2h11.8v4.9h-20z" style="fill:url(#SVGID_00000140730061363794363540000001987258723693883302_)"/><linearGradient id="SVGID_00000163074554893013217730000000380628995474143372_" x1="94.456" x2="268.663" y1="201.153" y2="201.153" gradientUnits="userSpaceOnUse"><stop offset="0" style="stop-color:#42b883"/><stop offset="0" style="stop-color:#42b883"/><stop offset="1" style="stop-color:#0ebbd2"/></linearGradient><path d="M247.8 215.4v-4.3l10-9.3c.9-.8 1.6-1.6 2.1-2.2.6-.7 1-1.3 1.3-1.9s.5-1.3.5-2.1q0-1.2-.6-2.1c-.4-.6-.9-1.1-1.5-1.4s-1.4-.5-2.2-.5c-.9 0-1.6.2-2.3.5q-.9.45-1.5 1.5c-.3.6-.5 1.4-.5 2.3h-5.6q0-2.7 1.2-4.8c.8-1.4 2-2.4 3.5-3.1s3.2-1.1 5.2-1.1 3.8.4 5.3 1.1 2.7 1.7 3.5 2.9c.8 1.3 1.2 2.7 1.2 4.3 0 1.1-.2 2.1-.6 3.1s-1.2 2.2-2.2 3.4q-1.65 1.95-4.5 4.5l-4.1 4v.2h11.8v4.9h-20z" style="fill:url(#SVGID_00000163074554893013217730000000380628995474143372_)"/><path d="M948.4 140h-473c-5.5 0-10-4.5-10-10s4.5-10 10-10h473c5.5 0 10 4.5 10 10s-4.4 10-10 10" class="st11"/><linearGradient id="SVGID_00000170965210512726002490000003736338137179268767_" x1="94.329" x2="136.287" y1="477.81" y2="466.647" gradientTransform="matrix(1 0 0 -1 0 602)" gradientUnits="userSpaceOnUse"><stop offset="0" style="stop-color:#42b883"/><stop offset="0" style="stop-color:#42b883"/><stop offset="1" style="stop-color:#0ebbd2"/></linearGradient><path d="M111.4 113.8c-.5 0-1-.2-1.4-.5-.4-.4-.5-.8-.5-1.4 0-.5.2-1 .5-1.4.4-.4.8-.5 1.4-.5h7.6c.5 0 1 .2 1.4.5.4.4.5.8.5 1.4 0 .5-.2 1-.5 1.4-.4.4-.8.5-1.4.5zm3.8 21c.5 0 1-.2 1.4-.5.4-.4.5-.8.5-1.4v-7.6c0-.5-.2-1-.5-1.4-.4-.4-.8-.5-1.4-.5-.5 0-1 .2-1.4.5-.4.4-.5.8-.5 1.4v7.6c0 .5.2 1 .5 1.4.5.3.9.5 1.4.5m0 15.2c-2.3 0-4.6-.5-6.6-1.4-2.1-.9-3.9-2.1-5.5-3.7s-2.8-3.4-3.7-5.5-1.4-4.3-1.4-6.6.5-4.6 1.4-6.6c.9-2.1 2.1-3.9 3.7-5.5s3.4-2.8 5.5-3.7 4.3-1.4 6.6-1.4c2 0 3.9.3 5.7 1 1.8.6 3.5 1.6 5.1 2.8l1.4-1.4c.3-.3.8-.5 1.3-.5s1 .2 1.3.6c.3.3.5.8.5 1.3s-.2 1-.5 1.3l-1.3 1.3c1.2 1.6 2.1 3.3 2.8 5.1.6 1.8 1 3.7 1 5.7 0 2.3-.5 4.6-1.4 6.6-.9 2.1-2.1 3.9-3.7 5.5s-3.4 2.8-5.5 3.7-4.3 1.4-6.7 1.4" style="fill:url(#SVGID_00000170965210512726002490000003736338137179268767_)"/><path d="M257.8 140h-84.4c-5.5 0-10-4.5-10-10s4.5-10 10-10h84.4c5.5 0 10 4.5 10 10s-4.4 10-10 10" class="st11"/><path d="M948.4 490H415.5c-5.5 0-10-4.5-10-10V199.2c0-5.5 4.5-10 10-10h532.9c5.5 0 10 4.5 10 10V480c0 5.5-4.4 10-10 10" style="fill:#18181a"/><circle cx="455.5" cy="245.2" r="17" class="st14"/><path d="M912.8 254.2h-407c-5 0-9-4-9-9s4-9 9-9h407c5 0 9 4 9 9s-4 9-9 9" class="st14"/><path d="M752.8 316.3h-247c-5 0-9-4-9-9s4-9 9-9h247c5 0 9 4 9 9s-4 9-9 9" class="st15"/><circle cx="455.5" cy="369.5" r="17" class="st14"/><path d="M844.9 378.5H505.8c-5 0-9-4-9-9s4-9 9-9h339.1c5 0 9 4 9 9 0 4.9-4 9-9 9" class="st14"/><circle cx="455.5" cy="431.6" r="17" class="st14"/><path d="M616.1 440.6H505.8c-5 0-9-4-9-9s4-9 9-9h110.3c5 0 9 4 9 9s-4 9-9 9" class="st14"/><path d="m452.9 310.6-3.9-3.9c-.3-.3-.8-.5-1.3-.5s-.9.2-1.3.5c-.3.3-.5.8-.5 1.3s.2.9.5 1.3l5.1 5.1c.4.4.8.5 1.3.5s.9-.2 1.3-.5l10.2-10.2c.3-.3.5-.8.5-1.3s-.2-.9-.5-1.3c-.3-.3-.8-.5-1.3-.5s-.9.2-1.3.5zm2.6 14.7c-2.5 0-4.8-.5-7-1.4s-4.1-2.2-5.7-3.8-2.9-3.5-3.8-5.7-1.4-4.5-1.4-7 .5-4.8 1.4-7 2.2-4.1 3.8-5.7 3.5-2.9 5.7-3.8 4.5-1.4 7-1.4 4.8.5 7 1.4 4.1 2.2 5.7 3.8 2.9 3.5 3.8 5.7 1.4 4.5 1.4 7-.5 4.8-1.4 7-2.2 4.1-3.8 5.7-3.5 2.9-5.7 3.8c-2.2 1-4.6 1.4-7 1.4" class="st15"/><path d="M182.4 250.7h-77.3c-4.4 0-8-3.6-8-8s3.6-8 8-8h77.3c4.4 0 8 3.6 8 8s-3.6 8-8 8" class="st14"/></svg>