<svg width="32" height="32" viewBox="0 0 32 32" fill="none" xmlns="http://www.w3.org/2000/svg">
<g clip-path="url(#clip0_2990_32863)">
<path d="M0.427426 13.0372C-0.0453354 13.3773 -0.1411 14.0421 0.216417 14.5019L0.891508 15.3701C1.18007 15.7412 1.17996 16.2608 0.891244 16.6318L0.217046 17.4981C-0.140769 17.9578 -0.0451097 18.6228 0.42779 18.9631L1.32733 19.6103C1.70884 19.8848 1.85544 20.3832 1.68332 20.8206L1.28254 21.839C1.06953 22.3803 1.34791 22.9903 1.89635 23.184L2.95385 23.5576C3.39554 23.7136 3.67576 24.1487 3.63517 24.6154L3.53987 25.7112C3.48967 26.2884 3.92637 26.7929 4.50478 26.826L5.63846 26.8908C6.1036 26.9174 6.49263 27.2536 6.58627 27.71L6.8098 28.7996C6.92575 29.3648 7.48426 29.7237 8.04654 29.5944L9.16198 29.3378C9.61448 29.2337 10.0806 29.446 10.2989 29.8558L10.8281 30.8487C11.0988 31.3567 11.7339 31.5431 12.2363 31.2622L13.2349 30.7037C13.6392 30.4775 14.1448 30.5499 14.4694 30.8804L15.267 31.6925C15.6697 32.1025 16.3303 32.1025 16.733 31.6925L17.5306 30.8804C17.8552 30.5499 18.3608 30.4775 18.7651 30.7036L19.7637 31.2622C20.2661 31.5431 20.9012 31.3567 21.1719 30.8487L21.7011 29.8558C21.9194 29.446 22.3855 29.2337 22.838 29.3378L23.9535 29.5944C24.5157 29.7237 25.0742 29.3648 25.1902 28.7996L25.4137 27.71C25.5074 27.2536 25.8964 26.9174 26.3615 26.8908L27.4952 26.826C28.0736 26.7929 28.5103 26.2884 28.4601 25.7112L28.3648 24.6154C28.3242 24.1487 28.6045 23.7136 29.0461 23.5576L30.1037 23.184C30.6521 22.9903 30.9305 22.3803 30.7175 21.839L30.3167 20.8206C30.1446 20.3832 30.2912 19.8848 30.6727 19.6103L31.5722 18.9631C32.0451 18.6228 32.1408 17.9578 31.783 17.4981L31.1088 16.6318C30.82 16.2608 30.8199 15.7412 31.1085 15.3701L31.7836 14.5019C32.1411 14.0421 32.0453 13.3773 31.5726 13.0372L30.6727 12.3897C30.2912 12.1152 30.1446 11.6168 30.3167 11.1794L30.7175 10.161C30.9305 9.61974 30.6521 9.00974 30.1037 8.81599L29.0461 8.44241C28.6045 8.28638 28.3242 7.85133 28.3648 7.38464L28.4601 6.28949C28.5103 5.71203 28.0732 5.20736 27.4945 5.17468L26.3621 5.11074C25.8967 5.08446 25.5073 4.74811 25.4136 4.29145L25.1901 3.20177C25.0742 2.63683 24.5161 2.27793 23.954 2.40684L22.8374 2.66293C22.3852 2.76664 21.9195 2.5544 21.7012 2.14502L21.1717 1.15231C20.901 0.644782 20.2665 0.45835 19.7643 0.738819L18.7649 1.29699C18.3607 1.52275 17.8554 1.45025 17.531 1.11994L16.733 0.307463C16.3303 -0.102488 15.6697 -0.102488 15.267 0.307463L14.469 1.11994C14.1446 1.45025 13.6393 1.52275 13.2351 1.29699L12.2357 0.738819C11.7335 0.458351 11.099 0.644781 10.8283 1.15231L10.2988 2.14503C10.0805 2.5544 9.61485 2.76664 9.16264 2.66293L8.04601 2.40684C7.48391 2.27793 6.92584 2.63683 6.80994 3.20177L6.58638 4.29145C6.49269 4.74811 6.10329 5.08446 5.63787 5.11074L4.50553 5.17468C3.92683 5.20736 3.48971 5.71203 3.53993 6.28949L3.63517 7.38464C3.67576 7.85133 3.39554 8.28638 2.95385 8.44241L1.89635 8.81599C1.34791 9.00974 1.06953 9.61974 1.28254 10.161L1.68332 11.1794C1.85544 11.6168 1.70884 12.1152 1.32733 12.3897L0.427426 13.0372Z" fill="white"/>
<path d="M7 9.00018L16 23.9998L25 9.00018L22 9.00018L16 18.6428L10 9.00018H7Z" fill="#3DD491"/>
<path d="M10 8.99985L16 18.6426L22 9.00001L18 8.99985L16 12.2142L14 8.99985L10 8.99985Z" fill="#2C3D4F"/>
</g>
<defs>
<clipPath id="clip0_2990_32863">
<rect width="32" height="32" fill="white"/>
</clipPath>
</defs>
</svg>
