<svg fill="none" viewBox="0 0 60 61" height="61" width="60" xmlns="http://www.w3.org/2000/svg" class="h-auto w-15 text-brilliant-rose"><path xmlns="http://www.w3.org/2000/svg" d="M1.652 24.788a2 2 0 0 0-.408 2.83L2.34 29.05a2 2 0 0 1 0 2.433l-1.095 1.428a2 2 0 0 0 .408 2.832L3.099 36.8a2 2 0 0 1 .685 2.337l-.65 1.679a2 2 0 0 0 1.19 2.605l1.672.6a2 2 0 0 1 1.318 2.054l-.153 1.789a2 2 0 0 0 1.877 2.167l1.763.102a2 2 0 0 1 1.844 1.6L13 53.485a2 2 0 0 0 2.415 1.552l1.713-.4a2 2 0 0 1 2.226 1.018l.822 1.567a2 2 0 0 0 2.759.81l1.525-.866a2 2 0 0 1 2.425.349l1.224 1.265a2 2 0 0 0 2.875 0l1.224-1.265a2 2 0 0 1 2.425-.349l1.525.866a2 2 0 0 0 2.759-.81l.823-1.567a2 2 0 0 1 2.225-1.018l1.712.4a2 2 0 0 0 2.416-1.552l.354-1.75a2 2 0 0 1 1.844-1.6l1.763-.103a2 2 0 0 0 1.877-2.167l-.153-1.79a2 2 0 0 1 1.317-2.053l1.674-.6a2 2 0 0 0 1.19-2.605l-.651-1.679a2 2 0 0 1 .685-2.337l1.446-1.057a2 2 0 0 0 .408-2.832l-1.095-1.428a2 2 0 0 1 0-2.433l1.096-1.431a2 2 0 0 0-.408-2.831l-1.447-1.057a2 2 0 0 1-.685-2.338l.65-1.679a2 2 0 0 0-1.19-2.605l-1.673-.6a2 2 0 0 1-1.317-2.053l.153-1.788a2 2 0 0 0-1.878-2.167l-1.76-.101a2 2 0 0 1-1.847-1.6l-.353-1.752a2 2 0 0 0-2.414-1.552l-1.715.4a2 2 0 0 1-2.224-1.018l-.823-1.567a2 2 0 0 0-2.758-.81l-1.526.866a2 2 0 0 1-2.424-.35l-1.225-1.266a2 2 0 0 0-2.875 0l-1.225 1.266a2 2 0 0 1-2.424.35L22.933 2.5a2 2 0 0 0-2.758.81l-.823 1.567a2 2 0 0 1-2.224 1.018l-1.715-.4A2 2 0 0 0 13 7.048L12.646 8.8a2 2 0 0 1-1.846 1.6l-1.761.102a2 2 0 0 0-1.878 2.167l.153 1.788a2 2 0 0 1-1.318 2.053l-1.673.6a2 2 0 0 0-1.19 2.605l.651 1.679A2 2 0 0 1 3.1 23.73z" fill="url(#a)" fill-opacity=".3"/><path xmlns="http://www.w3.org/2000/svg" d="M15.098 19.136 29.323 43.34l14.225-24.204h-5.69l-8.535 14.522-8.606-14.522z" fill="#3DD491"/><path xmlns="http://www.w3.org/2000/svg" d="m20.786 19.136 8.57 14.712 8.5-14.712h-5.241l-3.258 5.659-3.33-5.659z" fill="#2C3D4F"/><defs xmlns="http://www.w3.org/2000/svg"><linearGradient id="a" x1="59.091" y1=".265" x2="-11.724" y2="21.914" gradientUnits="userSpaceOnUse"><stop stop-color="#F864BD"/><stop offset="1" stop-color="#4785FE"/></linearGradient></defs></svg>