<svg xmlns="http://www.w3.org/2000/svg" viewBox="0 0 1068 600" xmlns:v="https://vecta.io/nano"><linearGradient id="A" x1="105.763" x2="143.763" y1="130" y2="130" gradientUnits="userSpaceOnUse"><stop offset="0" stop-color="#42b883"/><stop offset="1" stop-color="#0ebbd2"/></linearGradient><linearGradient id="B" gradientUnits="userSpaceOnUse"><stop offset="0" stop-color="#42b883"/><stop offset="0" stop-color="#42b883"/><stop offset="1" stop-color="#0ebbd2"/></linearGradient><linearGradient href="#B" id="C" x1="105.763" x2="140.363" y1="182.95" y2="182.95"/><linearGradient href="#B" id="D" x1="440.515" x2="488.325" y1="122.58" y2="137.42"/><path fill="#252529" d="M0 0h1068v600H0z"/><path fill="#1e1e20" d="M325.1 440.6H90c-16.6 0-30-13.4-30-30V90c0-16.6 13.4-30 30-30h235.1c16.6 0 30 13.4 30 30v320.6c0 16.6-13.5 30-30 30M978 540H435.1c-16.6 0-30-13.4-30-30V90c0-16.6 13.4-30 30-30H978c16.6 0 30 13.4 30 30v420c0 16.6-13.4 30-30 30"/><path fill="#18181a" d="M948 490H455.6c-5.5 0-10-4.5-10-10V199.2c0-5.5 4.5-10 10-10H948c5.5 0 10 4.5 10 10V480c0 5.5-4.5 10-10 10"/><path fill="#979fad" d="M299.3 140h-122c-5.5 0-10-4.5-10-10s4.5-10 10-10h122.1c5.5 0 10 4.5 10 10-.1 5.5-4.6 10-10.1 10"/><path fill="url(#A)" d="M109.8 150c-1.1 0-2-.4-2.8-1.2s-1.2-1.7-1.2-2.8v-32c0-1.1.4-2 1.2-2.8s1.7-1.2 2.8-1.2h14.3q.75 0 1.5.3c.75.3.9.5 1.3.8l9.7 9.7c.4.4.6.8.9 1.3q.3.75.3 1.5v4.5l-16 15.9v5.9h-12zm17 0c-.3 0-.5-.1-.7-.3s-.3-.4-.3-.7v-2.4c0-.3.1-.5.2-.8s.3-.5.4-.7l9.7-9.8 4.3 4.2-9.8 9.8c-.2.2-.4.4-.6.5-.3.1-.5.1-.8.1h-2.4zm15-11.8-4.2-4.2 1.4-1.4c.4-.4.9-.6 1.4-.6s1 .2 1.4.6l1.4 1.4c.4.4.5.9.5 1.4 0 .6-.2 1-.5 1.4zm-16-14.2h8l-10-10v8c0 .6.2 1 .6 1.4.3.4.8.6 1.4.6"/><path fill="#1e1e20" d="M304.3 188H110.8a4.95 4.95 0 1 1 0-10h193.6a4.95 4.95 0 0 1 5 5c-.1 2.7-2.3 5-5.1 5"/><path fill="url(#C)" d="M135.4 188h-24.6a4.95 4.95 0 1 1 0-10h24.6a4.95 4.95 0 0 1 5 5c0 2.7-2.3 5-5 5"/><path fill="#414147" d="M302.3 245.7H112.8c-3.9 0-7-3.1-7-7s3.1-7 7-7h189.6c3.9 0 7 3.1 7 7-.1 3.8-3.2 7-7.1 7m0 29H112.8c-3.9 0-7-3.1-7-7s3.1-7 7-7h189.6c3.9 0 7 3.1 7 7-.1 3.9-3.2 7-7.1 7m0 29H112.8c-3.9 0-7-3.1-7-7s3.1-7 7-7h189.6c3.9 0 7 3.1 7 7-.1 3.9-3.2 7-7.1 7m0 29.1H112.8c-3.9 0-7-3.1-7-7s3.1-7 7-7h189.6c3.9 0 7 3.1 7 7-.1 3.8-3.2 7-7.1 7m0 29H112.8c-3.9 0-7-3.1-7-7s3.1-7 7-7h189.6c3.9 0 7 3.1 7 7-.1 3.8-3.2 7-7.1 7m-93.7 29h-95.8c-3.9 0-7-3.1-7-7s3.1-7 7-7h95.8c3.9 0 7 3.1 7 7s-3.2 7-7 7"/><path fill="#42b883" d="M564.3 246.7h-68.1c-3.9 0-7-3.1-7-7s3.1-7 7-7h68.1c3.9 0 7 3.1 7 7s-3.1 7-7 7"/><g fill="#414147"><path d="M600.6 275.7h-64.4c-3.9 0-7-3.1-7-7s3.1-7 7-7h64.4c3.9 0 7 3.1 7 7s-3.2 7-7 7m87.9 0h-64.4c-3.9 0-7-3.1-7-7s3.1-7 7-7h64.4c3.9 0 7 3.1 7 7s-3.1 7-7 7m77.3 29H576.3c-3.9 0-7-3.1-7-7s3.1-7 7-7h189.6c3.9 0 7 3.1 7 7-.1 3.9-3.2 7-7.1 7m63.6 0h-38.6c-3.9 0-7-3.1-7-7s3.1-7 7-7h38.6c3.9 0 7 3.1 7 7s-3.1 7-7 7m62.3 0h-38.6c-3.9 0-7-3.1-7-7s3.1-7 7-7h38.6c3.9 0 7 3.1 7 7s-3.1 7-7 7m-291.1 29.1h-64.4c-3.9 0-7-3.1-7-7s3.1-7 7-7h64.4c3.9 0 7 3.1 7 7 0 3.8-3.2 7-7 7m20.5 29h-44.8c-3.9 0-7-3.1-7-7s3.1-7 7-7h44.8c3.9 0 7 3.1 7 7 0 3.8-3.1 7-7 7m69.8 0H646c-3.9 0-7-3.1-7-7s3.1-7 7-7h44.8c3.9 0 7 3.1 7 7 .1 3.8-3.1 7-6.9 7m143.5 0H715.8c-3.9 0-7-3.1-7-7s3.1-7 7-7h118.6c3.9 0 7 3.1 7 7 0 3.8-3.1 7-7 7m-109.8 29H616.3c-3.9 0-7-3.1-7-7s3.1-7 7-7h108.3c3.9 0 7 3.1 7 7s-3.1 7-7 7m134.1 0H750.4c-3.9 0-7-3.1-7-7s3.1-7 7-7h108.3c3.9 0 7 3.1 7 7s-3.1 7-7 7"/><path d="M688.5 391.8h-64.4c-3.9 0-7-3.1-7-7s3.1-7 7-7h64.4c3.9 0 7 3.1 7 7s-3.1 7-7 7m-87.9 29h-64.4c-3.9 0-7-3.1-7-7s3.1-7 7-7h64.4c3.9 0 7 3.1 7 7s-3.2 7-7 7m94.2 0h-64.4c-3.9 0-7-3.1-7-7s3.1-7 7-7h64.4c3.9 0 7 3.1 7 7s-3.1 7-7 7m67.3 0h-38.6c-3.9 0-7-3.1-7-7s3.1-7 7-7h38.6c3.9 0 7 3.1 7 7s-3.1 7-7 7"/></g><path fill="#42b883" d="M564.3 449.9h-68.1c-3.9 0-7-3.1-7-7s3.1-7 7-7h68.1c3.9 0 7 3.1 7 7 0 3.8-3.1 7-7 7"/><path fill="url(#D)" fill-rule="evenodd" d="M450 110c-1.5 0-2.9.6-4 1.6-1.1 1.1-1.6 2.5-1.6 4v28.7c0 1.5.6 2.9 1.6 4 1.1 1.1 2.5 1.6 4 1.6h28.8c1.5 0 2.9-.6 4-1.6 1.1-1.1 1.6-2.5 1.6-4v-28.7c0-1.5-.6-2.9-1.6-4-1.1-1.1-2.5-1.6-4-1.6zm10.1 15.7c.3-.4.5-.8.5-1.3s-.2-.9-.5-1.3c-.3-.3-.8-.5-1.3-.5s-1 .2-1.3.5l-5.6 5.6c-.4.4-.5.8-.5 1.3s.2 1 .5 1.3l5.6 5.6c.4.3.8.5 1.3.5s.9-.2 1.3-.5c.3-.3.5-.8.5-1.3s-.2-1-.5-1.3l-4.3-4.3zm11.3-2.6c-.2-.2-.4-.3-.6-.4s-.5-.2-.7-.2c-.3 0-.5 0-.7.1s-.4.2-.6.4-.3.4-.4.6-.1.5-.1.7c0 .3.1.5.2.7s.3.4.4.6l4.3 4.3-4.3 4.3c-.2.2-.3.4-.4.6s-.2.5-.2.7c0 .3 0 .5.1.7s.2.4.4.6.4.3.6.4.5.1.7.1c.3 0 .5-.1.7-.2s.4-.3.6-.4l5.6-5.6c.4-.4.5-.8.5-1.3s-.2-1-.5-1.3z"/></svg>